# xmcd
#
# Track frame offsets:
#	150
#	38463
#	53565
#	71579
#	96597
#	137881
#	158169
#	189895
#
# Disc length: 2842 seconds
#
# Revision: 0
# Processed by: cddbd v1.5.2PL0 Copyright (c) Steve Scherf et al.
# Submitted via: VUPlayer 2.49
#
DISCID=640b1808
DTITLE=ravel chamer - ravel chamer
DYEAR=1999
DGENRE=Ballad
TTITLE0=01 - veldebuss
TTITLE1=02 trio 2 - 02 trio 2
TTITLE2=03 - trio4
TTITLE3=04 - trio3
TTITLE4=05 - trio5
TTITLE5=06 - trio6
TTITLE6=07 - trio7
TTITLE7=08 - trio8
EXTD=
EXTT0=
EXTT1=
EXTT2=
EXTT3=
EXTT4=
EXTT5=
EXTT6=
EXTT7=
PLAYORDER=
